<svg width="1813" height="344" viewBox="0 0 1813 344" fill="none" xmlns="http://www.w3.org/2000/svg">
<path d="M97.6288 15.5C113.462 15.5 127.212 18.1667 138.879 23.5C150.545 28.6666 159.545 36.1666 165.879 46C172.212 55.6666 175.379 67.0833 175.379 80.2499C175.379 93.4165 172.212 104.833 165.879 114.5C159.545 124.166 150.545 131.666 138.879 137C127.212 142.166 113.462 144.75 97.6288 144.75H67.1289V190.5H17.629V15.5H97.6288ZM94.6288 105.75C104.795 105.75 112.462 103.583 117.629 99.2499C122.795 94.7499 125.379 88.4166 125.379 80.2499C125.379 72.0832 122.795 65.7499 117.629 61.2499C112.462 56.7499 104.795 54.4999 94.6288 54.4999H67.1289V105.75H94.6288Z" fill="url(#paint0_linear_68_192)"/>
<path d="M276.013 144H249.013V190.5H199.513V15.5H279.513C295.347 15.5 309.097 18.1667 320.763 23.5C332.43 28.6666 341.43 36.1666 347.763 46C354.097 55.6666 357.263 67.0833 357.263 80.2499C357.263 92.9165 354.263 104 348.263 113.5C342.43 122.833 334.013 130.166 323.013 135.5L360.763 190.5H307.763L276.013 144ZM307.263 80.2499C307.263 72.0832 304.68 65.7499 299.513 61.2499C294.347 56.7499 286.68 54.4999 276.513 54.4999H249.013V105.75H276.513C286.68 105.75 294.347 103.583 299.513 99.2499C304.68 94.7499 307.263 88.4166 307.263 80.2499Z" fill="url(#paint1_linear_68_192)"/>
<path d="M472.822 194C454.322 194 437.655 190.083 422.822 182.25C408.155 174.416 396.572 163.583 388.072 149.75C379.738 135.916 375.572 120.333 375.572 103C375.572 85.6665 379.738 70.0832 388.072 56.2499C396.572 42.4166 408.155 31.5833 422.822 23.75C437.655 15.9167 454.322 12 472.822 12C491.322 12 507.905 15.9167 522.572 23.75C537.405 31.5833 548.988 42.4166 557.321 56.2499C565.821 70.0832 570.071 85.6665 570.071 103C570.071 120.333 565.821 135.916 557.321 149.75C548.988 163.583 537.405 174.416 522.572 182.25C507.905 190.083 491.322 194 472.822 194ZM472.822 153C481.655 153 489.655 150.916 496.822 146.75C503.988 142.583 509.655 136.75 513.822 129.25C517.988 121.583 520.072 112.833 520.072 103C520.072 93.1665 517.988 84.4999 513.822 76.9999C509.655 69.3333 503.988 63.4166 496.822 59.2499C489.655 55.0833 481.655 52.9999 472.822 52.9999C463.988 52.9999 455.988 55.0833 448.822 59.2499C441.655 63.4166 435.988 69.3333 431.822 76.9999C427.655 84.4999 425.572 93.1665 425.572 103C425.572 112.833 427.655 121.583 431.822 129.25C435.988 136.75 441.655 142.583 448.822 146.75C455.988 150.916 463.988 153 472.822 153Z" fill="url(#paint2_linear_68_192)"/>
<path d="M753.997 190.5L753.497 97.7499L708.497 173.25H686.497L641.747 100.25V190.5H595.997V15.5H636.747L698.247 116.5L758.247 15.5H798.997L799.497 190.5H753.997Z" fill="url(#paint3_linear_68_192)"/>
<path d="M834.522 15.5H884.022V190.5H834.522V15.5Z" fill="url(#paint4_linear_68_192)"/>
<path d="M980.739 194C966.572 194 952.822 192.25 939.489 188.75C926.155 185.25 915.322 180.583 906.989 174.75L923.239 138.25C931.072 143.416 940.155 147.583 950.489 150.75C960.822 153.916 970.989 155.5 980.989 155.5C999.989 155.5 1009.49 150.75 1009.49 141.25C1009.49 136.25 1006.74 132.583 1001.24 130.25C995.905 127.75 987.239 125.166 975.239 122.5C962.072 119.666 951.072 116.667 942.239 113.5C933.405 110.167 925.822 104.917 919.489 97.7499C913.156 90.5832 909.989 80.9166 909.989 68.7499C909.989 58.0833 912.906 48.5 918.739 40C924.572 31.3333 933.239 24.5 944.739 19.5C956.405 14.5 970.655 12 987.489 12C998.989 12 1010.32 13.3333 1021.49 16C1032.66 18.5 1042.49 22.25 1050.99 27.25L1035.74 63.9999C1019.07 54.9999 1002.91 50.4999 987.239 50.4999C977.405 50.4999 970.239 51.9999 965.739 54.9999C961.239 57.8333 958.989 61.5833 958.989 66.2499C958.989 70.9166 961.655 74.4166 966.989 76.7499C972.322 79.0832 980.905 81.4999 992.739 83.9999C1006.07 86.8332 1017.07 89.9165 1025.74 93.2499C1034.57 96.4165 1042.16 101.583 1048.49 108.75C1054.99 115.75 1058.24 125.333 1058.24 137.5C1058.24 148 1055.32 157.5 1049.49 166C1043.66 174.5 1034.91 181.333 1023.24 186.5C1011.57 191.5 997.405 194 980.739 194Z" fill="url(#paint5_linear_68_192)"/>
<path d="M1221.6 152.25V190.5H1081.1V15.5H1218.35V53.7499H1130.1V83.2499H1207.85V120.25H1130.1V152.25H1221.6Z" fill="url(#paint6_linear_68_192)"/>
<path d="M1269.26 192.75C1261.26 192.75 1254.51 190.083 1249.01 184.75C1243.51 179.416 1240.76 172.666 1240.76 164.5C1240.76 156.166 1243.43 149.416 1248.76 144.25C1254.26 139.083 1261.1 136.5 1269.26 136.5C1277.6 136.5 1284.43 139.083 1289.76 144.25C1295.1 149.416 1297.76 156.166 1297.76 164.5C1297.76 172.666 1295.01 179.416 1289.51 184.75C1284.18 190.083 1277.43 192.75 1269.26 192.75Z" fill="url(#paint7_linear_68_192)"/>
<path d="M1447.38 156.5H1373.38L1359.63 190.5H1309.13L1386.38 15.5H1435.13L1512.63 190.5H1461.13L1447.38 156.5ZM1432.88 120L1410.38 63.9999L1387.88 120H1432.88Z" fill="url(#paint8_linear_68_192)"/>
<path d="M1526.66 15.5H1576.16V151.25H1659.66V190.5H1526.66V15.5Z" fill="url(#paint9_linear_68_192)"/>
<path d="M1679.25 15.5H1728.75V151.25H1812.25V190.5H1679.25V15.5Z" fill="url(#paint10_linear_68_192)"/>
<mask id="path-2-inside-1_68_192" fill="white">
<path d="M79.9999 4.00024C95.8332 4.00024 109.583 6.6669 121.25 12.0002C132.916 17.1669 141.916 24.6669 148.25 34.5002C154.583 44.1668 157.75 55.5835 157.75 68.7501C157.75 81.9168 154.583 93.3334 148.25 103C141.916 112.667 132.916 120.167 121.25 125.5C109.583 130.667 95.8332 133.25 79.9999 133.25H49.4999V179H0V4.00024H79.9999ZM76.9999 94.2501C87.1665 94.2501 94.8332 92.0834 99.9998 87.7501C105.167 83.2501 107.75 76.9168 107.75 68.7501C107.75 60.5835 105.167 54.2502 99.9998 49.7502C94.8332 45.2502 87.1665 43.0002 76.9999 43.0002H49.4999V94.2501H76.9999Z"/>
<path d="M258.384 132.5H231.384V179H181.884V4.00024H261.884C277.718 4.00024 291.468 6.6669 303.134 12.0002C314.801 17.1669 323.801 24.6669 330.134 34.5002C336.468 44.1668 339.634 55.5835 339.634 68.7501C339.634 81.4168 336.634 92.5001 330.634 102C324.801 111.333 316.384 118.667 305.384 124L343.134 179H290.134L258.384 132.5ZM289.634 68.7501C289.634 60.5835 287.051 54.2502 281.884 49.7502C276.718 45.2502 269.051 43.0002 258.884 43.0002H231.384V94.2501H258.884C269.051 94.2501 276.718 92.0834 281.884 87.7501C287.051 83.2501 289.634 76.9168 289.634 68.7501Z"/>
<path d="M455.193 182.5C436.693 182.5 420.026 178.583 405.193 170.75C390.526 162.917 378.943 152.083 370.443 138.25C362.109 124.417 357.943 108.833 357.943 91.5001C357.943 74.1668 362.109 58.5835 370.443 44.7502C378.943 30.9169 390.526 20.0835 405.193 12.2502C420.026 4.4169 436.693 0.500244 455.193 0.500244C473.693 0.500244 490.276 4.4169 504.943 12.2502C519.776 20.0835 531.359 30.9169 539.692 44.7502C548.192 58.5835 552.442 74.1668 552.442 91.5001C552.442 108.833 548.192 124.417 539.692 138.25C531.359 152.083 519.776 162.917 504.943 170.75C490.276 178.583 473.693 182.5 455.193 182.5ZM455.193 141.5C464.026 141.5 472.026 139.417 479.193 135.25C486.359 131.083 492.026 125.25 496.193 117.75C500.359 110.083 502.443 101.333 502.443 91.5001C502.443 81.6668 500.359 73.0001 496.193 65.5001C492.026 57.8335 486.359 51.9168 479.193 47.7502C472.026 43.5835 464.026 41.5002 455.193 41.5002C446.359 41.5002 438.359 43.5835 431.193 47.7502C424.026 51.9168 418.359 57.8335 414.193 65.5001C410.026 73.0001 407.943 81.6668 407.943 91.5001C407.943 101.333 410.026 110.083 414.193 117.75C418.359 125.25 424.026 131.083 431.193 135.25C438.359 139.417 446.359 141.5 455.193 141.5Z"/>
<path d="M736.368 179L735.868 86.2501L690.868 161.75H668.868L624.118 88.7501V179H578.368V4.00024H619.118L680.618 105L740.618 4.00024H781.368L781.868 179H736.368Z"/>
<path d="M816.893 4.00024H866.393V179H816.893V4.00024Z"/>
<path d="M963.11 182.5C948.943 182.5 935.193 180.75 921.86 177.25C908.526 173.75 897.693 169.083 889.36 163.25L905.61 126.75C913.443 131.917 922.526 136.083 932.86 139.25C943.193 142.417 953.36 144 963.36 144C982.36 144 991.86 139.25 991.86 129.75C991.86 124.75 989.11 121.083 983.61 118.75C978.276 116.25 969.61 113.667 957.61 111C944.443 108.167 933.443 105.167 924.61 102C915.776 98.6668 908.193 93.4168 901.86 86.2501C895.527 79.0835 892.36 69.4168 892.36 57.2502C892.36 46.5835 895.277 37.0002 901.11 28.5002C906.943 19.8335 915.61 13.0002 927.11 8.00024C938.776 3.00024 953.026 0.500244 969.86 0.500244C981.36 0.500244 992.693 1.83358 1003.86 4.50024C1015.03 7.00024 1024.86 10.7502 1033.36 15.7502L1018.11 52.5002C1001.44 43.5002 985.276 39.0002 969.61 39.0002C959.776 39.0002 952.61 40.5002 948.11 43.5002C943.61 46.3335 941.36 50.0835 941.36 54.7502C941.36 59.4168 944.026 62.9168 949.36 65.2501C954.693 67.5835 963.276 70.0001 975.11 72.5001C988.443 75.3335 999.443 78.4168 1008.11 81.7501C1016.94 84.9168 1024.53 90.0834 1030.86 97.2501C1037.36 104.25 1040.61 113.833 1040.61 126C1040.61 136.5 1037.69 146 1031.86 154.5C1026.03 163 1017.28 169.833 1005.61 175C993.943 180 979.776 182.5 963.11 182.5Z"/>
<path d="M1203.97 140.75V179H1063.47V4.00024H1200.72V42.2502H1112.47V71.7501H1190.22V108.75H1112.47V140.75H1203.97Z"/>
<path d="M1251.63 181.25C1243.63 181.25 1236.88 178.583 1231.38 173.25C1225.88 167.917 1223.13 161.167 1223.13 153C1223.13 144.667 1225.8 137.917 1231.13 132.75C1236.63 127.583 1243.47 125 1251.63 125C1259.97 125 1266.8 127.583 1272.13 132.75C1277.47 137.917 1280.13 144.667 1280.13 153C1280.13 161.167 1277.38 167.917 1271.88 173.25C1266.55 178.583 1259.8 181.25 1251.63 181.25Z"/>
<path d="M1429.75 145H1355.75L1342 179H1291.5L1368.75 4.00024H1417.5L1495 179H1443.5L1429.75 145ZM1415.25 108.5L1392.75 52.5002L1370.25 108.5H1415.25Z"/>
<path d="M1509.03 4.00024H1558.53V139.75H1642.03V179H1509.03V4.00024Z"/>
<path d="M1661.62 4.00024H1711.12V139.75H1794.62V179H1661.62V4.00024Z"/>
</mask>
<path d="M79.9999 4.00024C95.8332 4.00024 109.583 6.6669 121.25 12.0002C132.916 17.1669 141.916 24.6669 148.25 34.5002C154.583 44.1668 157.75 55.5835 157.75 68.7501C157.75 81.9168 154.583 93.3334 148.25 103C141.916 112.667 132.916 120.167 121.25 125.5C109.583 130.667 95.8332 133.25 79.9999 133.25H49.4999V179H0V4.00024H79.9999ZM76.9999 94.2501C87.1665 94.2501 94.8332 92.0834 99.9998 87.7501C105.167 83.2501 107.75 76.9168 107.75 68.7501C107.75 60.5835 105.167 54.2502 99.9998 49.7502C94.8332 45.2502 87.1665 43.0002 76.9999 43.0002H49.4999V94.2501H76.9999Z" fill="url(#paint11_linear_68_192)"/>
<path d="M258.384 132.5H231.384V179H181.884V4.00024H261.884C277.718 4.00024 291.468 6.6669 303.134 12.0002C314.801 17.1669 323.801 24.6669 330.134 34.5002C336.468 44.1668 339.634 55.5835 339.634 68.7501C339.634 81.4168 336.634 92.5001 330.634 102C324.801 111.333 316.384 118.667 305.384 124L343.134 179H290.134L258.384 132.5ZM289.634 68.7501C289.634 60.5835 287.051 54.2502 281.884 49.7502C276.718 45.2502 269.051 43.0002 258.884 43.0002H231.384V94.2501H258.884C269.051 94.2501 276.718 92.0834 281.884 87.7501C287.051 83.2501 289.634 76.9168 289.634 68.7501Z" fill="url(#paint12_linear_68_192)"/>
<path d="M455.193 182.5C436.693 182.5 420.026 178.583 405.193 170.75C390.526 162.917 378.943 152.083 370.443 138.25C362.109 124.417 357.943 108.833 357.943 91.5001C357.943 74.1668 362.109 58.5835 370.443 44.7502C378.943 30.9169 390.526 20.0835 405.193 12.2502C420.026 4.4169 436.693 0.500244 455.193 0.500244C473.693 0.500244 490.276 4.4169 504.943 12.2502C519.776 20.0835 531.359 30.9169 539.692 44.7502C548.192 58.5835 552.442 74.1668 552.442 91.5001C552.442 108.833 548.192 124.417 539.692 138.25C531.359 152.083 519.776 162.917 504.943 170.75C490.276 178.583 473.693 182.5 455.193 182.5ZM455.193 141.5C464.026 141.5 472.026 139.417 479.193 135.25C486.359 131.083 492.026 125.25 496.193 117.75C500.359 110.083 502.443 101.333 502.443 91.5001C502.443 81.6668 500.359 73.0001 496.193 65.5001C492.026 57.8335 486.359 51.9168 479.193 47.7502C472.026 43.5835 464.026 41.5002 455.193 41.5002C446.359 41.5002 438.359 43.5835 431.193 47.7502C424.026 51.9168 418.359 57.8335 414.193 65.5001C410.026 73.0001 407.943 81.6668 407.943 91.5001C407.943 101.333 410.026 110.083 414.193 117.75C418.359 125.25 424.026 131.083 431.193 135.25C438.359 139.417 446.359 141.5 455.193 141.5Z" fill="url(#paint13_linear_68_192)"/>
<path d="M736.368 179L735.868 86.2501L690.868 161.75H668.868L624.118 88.7501V179H578.368V4.00024H619.118L680.618 105L740.618 4.00024H781.368L781.868 179H736.368Z" fill="url(#paint14_linear_68_192)"/>
<path d="M816.893 4.00024H866.393V179H816.893V4.00024Z" fill="url(#paint15_linear_68_192)"/>
<path d="M963.11 182.5C948.943 182.5 935.193 180.75 921.86 177.25C908.526 173.75 897.693 169.083 889.36 163.25L905.61 126.75C913.443 131.917 922.526 136.083 932.86 139.25C943.193 142.417 953.36 144 963.36 144C982.36 144 991.86 139.25 991.86 129.75C991.86 124.75 989.11 121.083 983.61 118.75C978.276 116.25 969.61 113.667 957.61 111C944.443 108.167 933.443 105.167 924.61 102C915.776 98.6668 908.193 93.4168 901.86 86.2501C895.527 79.0835 892.36 69.4168 892.36 57.2502C892.36 46.5835 895.277 37.0002 901.11 28.5002C906.943 19.8335 915.61 13.0002 927.11 8.00024C938.776 3.00024 953.026 0.500244 969.86 0.500244C981.36 0.500244 992.693 1.83358 1003.86 4.50024C1015.03 7.00024 1024.86 10.7502 1033.36 15.7502L1018.11 52.5002C1001.44 43.5002 985.276 39.0002 969.61 39.0002C959.776 39.0002 952.61 40.5002 948.11 43.5002C943.61 46.3335 941.36 50.0835 941.36 54.7502C941.36 59.4168 944.026 62.9168 949.36 65.2501C954.693 67.5835 963.276 70.0001 975.11 72.5001C988.443 75.3335 999.443 78.4168 1008.11 81.7501C1016.94 84.9168 1024.53 90.0834 1030.86 97.2501C1037.36 104.25 1040.61 113.833 1040.61 126C1040.61 136.5 1037.69 146 1031.86 154.5C1026.03 163 1017.28 169.833 1005.61 175C993.943 180 979.776 182.5 963.11 182.5Z" fill="url(#paint16_linear_68_192)"/>
<path d="M1203.97 140.75V179H1063.47V4.00024H1200.72V42.2502H1112.47V71.7501H1190.22V108.75H1112.47V140.75H1203.97Z" fill="url(#paint17_linear_68_192)"/>
<path d="M1251.63 181.25C1243.63 181.25 1236.88 178.583 1231.38 173.25C1225.88 167.917 1223.13 161.167 1223.13 153C1223.13 144.667 1225.8 137.917 1231.13 132.75C1236.63 127.583 1243.47 125 1251.63 125C1259.97 125 1266.8 127.583 1272.13 132.75C1277.47 137.917 1280.13 144.667 1280.13 153C1280.13 161.167 1277.38 167.917 1271.88 173.25C1266.55 178.583 1259.8 181.25 1251.63 181.25Z" fill="url(#paint18_linear_68_192)"/>
<path d="M1429.75 145H1355.75L1342 179H1291.5L1368.75 4.00024H1417.5L1495 179H1443.5L1429.75 145ZM1415.25 108.5L1392.75 52.5002L1370.25 108.5H1415.25Z" fill="url(#paint19_linear_68_192)"/>
<path d="M1509.03 4.00024H1558.53V139.75H1642.03V179H1509.03V4.00024Z" fill="url(#paint20_linear_68_192)"/>
<path d="M1661.62 4.00024H1711.12V139.75H1794.62V179H1661.62V4.00024Z" fill="url(#paint21_linear_68_192)"/>
<path d="M79.9999 4.00024C95.8332 4.00024 109.583 6.6669 121.25 12.0002C132.916 17.1669 141.916 24.6669 148.25 34.5002C154.583 44.1668 157.75 55.5835 157.75 68.7501C157.75 81.9168 154.583 93.3334 148.25 103C141.916 112.667 132.916 120.167 121.25 125.5C109.583 130.667 95.8332 133.25 79.9999 133.25H49.4999V179H0V4.00024H79.9999ZM76.9999 94.2501C87.1665 94.2501 94.8332 92.0834 99.9998 87.7501C105.167 83.2501 107.75 76.9168 107.75 68.7501C107.75 60.5835 105.167 54.2502 99.9998 49.7502C94.8332 45.2502 87.1665 43.0002 76.9999 43.0002H49.4999V94.2501H76.9999Z" stroke="black" stroke-width="2" mask="url(#path-2-inside-1_68_192)"/>
<path d="M258.384 132.5H231.384V179H181.884V4.00024H261.884C277.718 4.00024 291.468 6.6669 303.134 12.0002C314.801 17.1669 323.801 24.6669 330.134 34.5002C336.468 44.1668 339.634 55.5835 339.634 68.7501C339.634 81.4168 336.634 92.5001 330.634 102C324.801 111.333 316.384 118.667 305.384 124L343.134 179H290.134L258.384 132.5ZM289.634 68.7501C289.634 60.5835 287.051 54.2502 281.884 49.7502C276.718 45.2502 269.051 43.0002 258.884 43.0002H231.384V94.2501H258.884C269.051 94.2501 276.718 92.0834 281.884 87.7501C287.051 83.2501 289.634 76.9168 289.634 68.7501Z" stroke="black" stroke-width="2" mask="url(#path-2-inside-1_68_192)"/>
<path d="M455.193 182.5C436.693 182.5 420.026 178.583 405.193 170.75C390.526 162.917 378.943 152.083 370.443 138.25C362.109 124.417 357.943 108.833 357.943 91.5001C357.943 74.1668 362.109 58.5835 370.443 44.7502C378.943 30.9169 390.526 20.0835 405.193 12.2502C420.026 4.4169 436.693 0.500244 455.193 0.500244C473.693 0.500244 490.276 4.4169 504.943 12.2502C519.776 20.0835 531.359 30.9169 539.692 44.7502C548.192 58.5835 552.442 74.1668 552.442 91.5001C552.442 108.833 548.192 124.417 539.692 138.25C531.359 152.083 519.776 162.917 504.943 170.75C490.276 178.583 473.693 182.5 455.193 182.5ZM455.193 141.5C464.026 141.5 472.026 139.417 479.193 135.25C486.359 131.083 492.026 125.25 496.193 117.75C500.359 110.083 502.443 101.333 502.443 91.5001C502.443 81.6668 500.359 73.0001 496.193 65.5001C492.026 57.8335 486.359 51.9168 479.193 47.7502C472.026 43.5835 464.026 41.5002 455.193 41.5002C446.359 41.5002 438.359 43.5835 431.193 47.7502C424.026 51.9168 418.359 57.8335 414.193 65.5001C410.026 73.0001 407.943 81.6668 407.943 91.5001C407.943 101.333 410.026 110.083 414.193 117.75C418.359 125.25 424.026 131.083 431.193 135.25C438.359 139.417 446.359 141.5 455.193 141.5Z" stroke="black" stroke-width="2" mask="url(#path-2-inside-1_68_192)"/>
<path d="M736.368 179L735.868 86.2501L690.868 161.75H668.868L624.118 88.7501V179H578.368V4.00024H619.118L680.618 105L740.618 4.00024H781.368L781.868 179H736.368Z" stroke="black" stroke-width="2" mask="url(#path-2-inside-1_68_192)"/>
<path d="M816.893 4.00024H866.393V179H816.893V4.00024Z" stroke="black" stroke-width="2" mask="url(#path-2-inside-1_68_192)"/>
<path d="M963.11 182.5C948.943 182.5 935.193 180.75 921.86 177.25C908.526 173.75 897.693 169.083 889.36 163.25L905.61 126.75C913.443 131.917 922.526 136.083 932.86 139.25C943.193 142.417 953.36 144 963.36 144C982.36 144 991.86 139.25 991.86 129.75C991.86 124.75 989.11 121.083 983.61 118.75C978.276 116.25 969.61 113.667 957.61 111C944.443 108.167 933.443 105.167 924.61 102C915.776 98.6668 908.193 93.4168 901.86 86.2501C895.527 79.0835 892.36 69.4168 892.36 57.2502C892.36 46.5835 895.277 37.0002 901.11 28.5002C906.943 19.8335 915.61 13.0002 927.11 8.00024C938.776 3.00024 953.026 0.500244 969.86 0.500244C981.36 0.500244 992.693 1.83358 1003.86 4.50024C1015.03 7.00024 1024.86 10.7502 1033.36 15.7502L1018.11 52.5002C1001.44 43.5002 985.276 39.0002 969.61 39.0002C959.776 39.0002 952.61 40.5002 948.11 43.5002C943.61 46.3335 941.36 50.0835 941.36 54.7502C941.36 59.4168 944.026 62.9168 949.36 65.2501C954.693 67.5835 963.276 70.0001 975.11 72.5001C988.443 75.3335 999.443 78.4168 1008.11 81.7501C1016.94 84.9168 1024.53 90.0834 1030.86 97.2501C1037.36 104.25 1040.61 113.833 1040.61 126C1040.61 136.5 1037.69 146 1031.86 154.5C1026.03 163 1017.28 169.833 1005.61 175C993.943 180 979.776 182.5 963.11 182.5Z" stroke="black" stroke-width="2" mask="url(#path-2-inside-1_68_192)"/>
<path d="M1203.97 140.75V179H1063.47V4.00024H1200.72V42.2502H1112.47V71.7501H1190.22V108.75H1112.47V140.75H1203.97Z" stroke="black" stroke-width="2" mask="url(#path-2-inside-1_68_192)"/>
<path d="M1251.63 181.25C1243.63 181.25 1236.88 178.583 1231.38 173.25C1225.88 167.917 1223.13 161.167 1223.13 153C1223.13 144.667 1225.8 137.917 1231.13 132.75C1236.63 127.583 1243.47 125 1251.63 125C1259.97 125 1266.8 127.583 1272.13 132.75C1277.47 137.917 1280.13 144.667 1280.13 153C1280.13 161.167 1277.38 167.917 1271.88 173.25C1266.55 178.583 1259.8 181.25 1251.63 181.25Z" stroke="black" stroke-width="2" mask="url(#path-2-inside-1_68_192)"/>
<path d="M1429.75 145H1355.75L1342 179H1291.5L1368.75 4.00024H1417.5L1495 179H1443.5L1429.75 145ZM1415.25 108.5L1392.75 52.5002L1370.25 108.5H1415.25Z" stroke="black" stroke-width="2" mask="url(#path-2-inside-1_68_192)"/>
<path d="M1509.03 4.00024H1558.53V139.75H1642.03V179H1509.03V4.00024Z" stroke="black" stroke-width="2" mask="url(#path-2-inside-1_68_192)"/>
<path d="M1661.62 4.00024H1711.12V139.75H1794.62V179H1661.62V4.00024Z" stroke="black" stroke-width="2" mask="url(#path-2-inside-1_68_192)"/>
<path d="M301.719 266.455H272V258.725H340.379V266.455H310.659V343.275H301.719V266.455Z" fill="white"/>
<path d="M414.612 344C406.235 344 398.624 342.148 391.778 338.444C385.013 334.659 379.697 329.506 375.831 322.983C372.046 316.461 370.153 309.133 370.153 301C370.153 292.867 372.046 285.539 375.831 279.017C379.697 272.494 385.013 267.381 391.778 263.677C398.624 259.892 406.235 258 414.612 258C422.988 258 430.518 259.852 437.203 263.556C443.969 267.26 449.284 272.414 453.15 279.017C457.016 285.539 458.949 292.867 458.949 301C458.949 309.133 457.016 316.501 453.15 323.104C449.284 329.626 443.969 334.74 437.203 338.444C430.518 342.148 422.988 344 414.612 344ZM414.612 336.028C421.296 336.028 427.337 334.538 432.733 331.559C438.129 328.499 442.358 324.312 445.418 318.997C448.479 313.602 450.009 307.603 450.009 301C450.009 294.397 448.479 288.438 445.418 283.124C442.358 277.728 438.129 273.541 432.733 270.562C427.337 267.502 421.296 265.972 414.612 265.972C407.927 265.972 401.846 267.502 396.369 270.562C390.973 273.541 386.704 277.728 383.563 283.124C380.503 288.438 378.972 294.397 378.972 301C378.972 307.603 380.503 313.602 383.563 318.997C386.704 324.312 390.973 328.499 396.369 331.559C401.846 334.538 407.927 336.028 414.612 336.028Z" fill="white"/>
<path d="M575.361 266.455H545.641V258.725H614.02V266.455H584.301V343.275H575.361V266.455Z" fill="white"/>
<path d="M723.139 258.725V343.275H714.32V304.261H661.405V343.275H652.465V258.725H661.405V296.41H714.32V258.725H723.139Z" fill="white"/>
<path d="M834.705 335.545V343.275H774.903V258.725H832.893V266.455H783.843V296.531H827.577V304.14H783.843V335.545H834.705Z" fill="white"/>
<path d="M993.41 343.275L974.08 316.098C971.905 316.34 969.65 316.461 967.315 316.461H944.602V343.275H935.662V258.725H967.315C978.107 258.725 986.564 261.301 992.685 266.455C998.806 271.609 1001.87 278.695 1001.87 287.713C1001.87 294.316 1000.18 299.913 996.792 304.503C993.49 309.012 988.738 312.273 982.537 314.287L1003.2 343.275H993.41ZM967.073 308.851C975.449 308.851 981.852 306.999 986.282 303.295C990.712 299.591 992.926 294.397 992.926 287.713C992.926 280.869 990.712 275.635 986.282 272.011C981.852 268.307 975.449 266.455 967.073 266.455H944.602V308.851H967.073Z" fill="white"/>
<path d="M1106.93 335.545V343.275H1047.13V258.725H1105.12V266.455H1056.07V296.531H1099.8V304.14H1056.07V335.545H1106.93Z" fill="white"/>
<path d="M1175.42 344C1169.14 344 1163.1 342.993 1157.3 340.98C1151.58 338.967 1147.15 336.31 1144.01 333.008L1147.52 326.124C1150.58 329.184 1154.64 331.68 1159.72 333.612C1164.79 335.464 1170.03 336.39 1175.42 336.39C1182.99 336.39 1188.67 335.022 1192.46 332.284C1196.24 329.465 1198.14 325.842 1198.14 321.413C1198.14 318.031 1197.09 315.333 1194.99 313.32C1192.98 311.307 1190.48 309.777 1187.5 308.73C1184.52 307.603 1180.38 306.395 1175.06 305.107C1168.7 303.496 1163.62 301.966 1159.84 300.517C1156.05 298.987 1152.79 296.692 1150.05 293.632C1147.4 290.572 1146.07 286.425 1146.07 281.191C1146.07 276.923 1147.19 273.058 1149.45 269.596C1151.7 266.052 1155.17 263.234 1159.84 261.14C1164.51 259.047 1170.31 258 1177.24 258C1182.07 258 1186.78 258.684 1191.37 260.053C1196.04 261.342 1200.07 263.154 1203.45 265.489L1200.43 272.615C1196.89 270.28 1193.1 268.549 1189.08 267.421C1185.05 266.213 1181.1 265.61 1177.24 265.61C1169.83 265.61 1164.23 267.059 1160.44 269.958C1156.74 272.776 1154.89 276.44 1154.89 280.949C1154.89 284.331 1155.89 287.069 1157.91 289.163C1160 291.176 1162.58 292.746 1165.64 293.874C1168.78 294.92 1172.97 296.088 1178.2 297.376C1184.4 298.906 1189.4 300.436 1193.18 301.966C1197.05 303.416 1200.31 305.67 1202.97 308.73C1205.63 311.71 1206.96 315.776 1206.96 320.93C1206.96 325.198 1205.79 329.103 1203.45 332.646C1201.2 336.109 1197.69 338.887 1192.94 340.98C1188.19 342.993 1182.35 344 1175.42 344Z" fill="white"/>
<path d="M1287.32 344C1278.95 344 1271.38 342.148 1264.61 338.444C1257.93 334.74 1252.65 329.626 1248.78 323.104C1245 316.501 1243.11 309.133 1243.11 301C1243.11 292.867 1245 285.539 1248.78 279.017C1252.65 272.414 1257.97 267.26 1264.73 263.556C1271.5 259.852 1279.07 258 1287.44 258C1293.73 258 1299.52 259.047 1304.84 261.14C1310.16 263.234 1314.67 266.294 1318.37 270.32L1312.69 275.997C1306.09 269.314 1297.75 265.972 1287.69 265.972C1281 265.972 1274.92 267.502 1269.44 270.562C1263.97 273.622 1259.66 277.809 1256.52 283.124C1253.46 288.438 1251.93 294.397 1251.93 301C1251.93 307.603 1253.46 313.562 1256.52 318.876C1259.66 324.191 1263.97 328.378 1269.44 331.438C1274.92 334.498 1281 336.028 1287.69 336.028C1297.83 336.028 1306.17 332.646 1312.69 325.882L1318.37 331.559C1314.67 335.585 1310.12 338.685 1304.72 340.86C1299.4 342.953 1293.6 344 1287.32 344Z" fill="white"/>
<path d="M1395.42 344C1384.47 344 1375.93 340.86 1369.81 334.579C1363.69 328.298 1360.63 319.158 1360.63 307.16V258.725H1369.57V306.798C1369.57 316.622 1371.79 323.949 1376.21 328.781C1380.64 333.612 1387.05 336.028 1395.42 336.028C1403.88 336.028 1410.32 333.612 1414.75 328.781C1419.18 323.949 1421.4 316.622 1421.4 306.798V258.725H1430.1V307.16C1430.1 319.158 1427.04 328.298 1420.92 334.579C1414.87 340.86 1406.38 344 1395.42 344Z" fill="white"/>
<path d="M1541 335.545V343.275H1481.2V258.725H1539.19V266.455H1490.14V296.531H1533.87V304.14H1490.14V335.545H1541Z" fill="white"/>
<defs>
<linearGradient id="paint0_linear_68_192" x1="1107.45" y1="253.5" x2="1107.45" y2="-51.5002" gradientUnits="userSpaceOnUse">
<stop stop-color="#B702F7"/>
<stop offset="1" stop-color="#2292FA"/>
</linearGradient>
<linearGradient id="paint1_linear_68_192" x1="1107.45" y1="253.5" x2="1107.45" y2="-51.5002" gradientUnits="userSpaceOnUse">
<stop stop-color="#B702F7"/>
<stop offset="1" stop-color="#2292FA"/>
</linearGradient>
<linearGradient id="paint2_linear_68_192" x1="1107.45" y1="253.5" x2="1107.45" y2="-51.5002" gradientUnits="userSpaceOnUse">
<stop stop-color="#B702F7"/>
<stop offset="1" stop-color="#2292FA"/>
</linearGradient>
<linearGradient id="paint3_linear_68_192" x1="1107.45" y1="253.5" x2="1107.45" y2="-51.5002" gradientUnits="userSpaceOnUse">
<stop stop-color="#B702F7"/>
<stop offset="1" stop-color="#2292FA"/>
</linearGradient>
<linearGradient id="paint4_linear_68_192" x1="1107.45" y1="253.5" x2="1107.45" y2="-51.5002" gradientUnits="userSpaceOnUse">
<stop stop-color="#B702F7"/>
<stop offset="1" stop-color="#2292FA"/>
</linearGradient>
<linearGradient id="paint5_linear_68_192" x1="1107.45" y1="253.5" x2="1107.45" y2="-51.5002" gradientUnits="userSpaceOnUse">
<stop stop-color="#B702F7"/>
<stop offset="1" stop-color="#2292FA"/>
</linearGradient>
<linearGradient id="paint6_linear_68_192" x1="1107.45" y1="253.5" x2="1107.45" y2="-51.5002" gradientUnits="userSpaceOnUse">
<stop stop-color="#B702F7"/>
<stop offset="1" stop-color="#2292FA"/>
</linearGradient>
<linearGradient id="paint7_linear_68_192" x1="1107.45" y1="253.5" x2="1107.45" y2="-51.5002" gradientUnits="userSpaceOnUse">
<stop stop-color="#B702F7"/>
<stop offset="1" stop-color="#2292FA"/>
</linearGradient>
<linearGradient id="paint8_linear_68_192" x1="1107.45" y1="253.5" x2="1107.45" y2="-51.5002" gradientUnits="userSpaceOnUse">
<stop stop-color="#B702F7"/>
<stop offset="1" stop-color="#2292FA"/>
</linearGradient>
<linearGradient id="paint9_linear_68_192" x1="1107.45" y1="253.5" x2="1107.45" y2="-51.5002" gradientUnits="userSpaceOnUse">
<stop stop-color="#B702F7"/>
<stop offset="1" stop-color="#2292FA"/>
</linearGradient>
<linearGradient id="paint10_linear_68_192" x1="1107.45" y1="253.5" x2="1107.45" y2="-51.5002" gradientUnits="userSpaceOnUse">
<stop stop-color="#B702F7"/>
<stop offset="1" stop-color="#2292FA"/>
</linearGradient>
<linearGradient id="paint11_linear_68_192" x1="1089.82" y1="242" x2="1089.82" y2="-63" gradientUnits="userSpaceOnUse">
<stop stop-color="#FAF722"/>
<stop offset="1" stop-color="#F77702"/>
</linearGradient>
<linearGradient id="paint12_linear_68_192" x1="1089.82" y1="242" x2="1089.82" y2="-63" gradientUnits="userSpaceOnUse">
<stop stop-color="#FAF722"/>
<stop offset="1" stop-color="#F77702"/>
</linearGradient>
<linearGradient id="paint13_linear_68_192" x1="1089.82" y1="242" x2="1089.82" y2="-63" gradientUnits="userSpaceOnUse">
<stop stop-color="#FAF722"/>
<stop offset="1" stop-color="#F77702"/>
</linearGradient>
<linearGradient id="paint14_linear_68_192" x1="1089.82" y1="242" x2="1089.82" y2="-63" gradientUnits="userSpaceOnUse">
<stop stop-color="#FAF722"/>
<stop offset="1" stop-color="#F77702"/>
</linearGradient>
<linearGradient id="paint15_linear_68_192" x1="1089.82" y1="242" x2="1089.82" y2="-63" gradientUnits="userSpaceOnUse">
<stop stop-color="#FAF722"/>
<stop offset="1" stop-color="#F77702"/>
</linearGradient>
<linearGradient id="paint16_linear_68_192" x1="1089.82" y1="242" x2="1089.82" y2="-63" gradientUnits="userSpaceOnUse">
<stop stop-color="#FAF722"/>
<stop offset="1" stop-color="#F77702"/>
</linearGradient>
<linearGradient id="paint17_linear_68_192" x1="1089.82" y1="242" x2="1089.82" y2="-63" gradientUnits="userSpaceOnUse">
<stop stop-color="#FAF722"/>
<stop offset="1" stop-color="#F77702"/>
</linearGradient>
<linearGradient id="paint18_linear_68_192" x1="1089.82" y1="242" x2="1089.82" y2="-63" gradientUnits="userSpaceOnUse">
<stop stop-color="#FAF722"/>
<stop offset="1" stop-color="#F77702"/>
</linearGradient>
<linearGradient id="paint19_linear_68_192" x1="1089.82" y1="242" x2="1089.82" y2="-63" gradientUnits="userSpaceOnUse">
<stop stop-color="#FAF722"/>
<stop offset="1" stop-color="#F77702"/>
</linearGradient>
<linearGradient id="paint20_linear_68_192" x1="1089.82" y1="242" x2="1089.82" y2="-63" gradientUnits="userSpaceOnUse">
<stop stop-color="#FAF722"/>
<stop offset="1" stop-color="#F77702"/>
</linearGradient>
<linearGradient id="paint21_linear_68_192" x1="1089.82" y1="242" x2="1089.82" y2="-63" gradientUnits="userSpaceOnUse">
<stop stop-color="#FAF722"/>
<stop offset="1" stop-color="#F77702"/>
</linearGradient>
</defs>
</svg>
